<svg width="106" height="32" viewBox="0 0 106 32" fill="none" xmlns="http://www.w3.org/2000/svg">
<path d="M18.7137 31.3846C20.8046 31.3846 22.4996 29.6896 22.4996 27.5987C22.4996 25.5078 20.8046 23.8128 18.7137 23.8128C16.6229 23.8128 14.9279 25.5078 14.9279 27.5987C14.9279 29.6896 16.6229 31.3846 18.7137 31.3846Z" fill="url(#paint0_linear)"/>
<path d="M18.9064 12.7494C21.9445 12.7734 24.9963 13.8064 27.412 15.6563C29.1322 16.9738 28.5255 19.4643 26.8366 20.1297C25.9332 20.4859 24.9094 20.1991 24.1009 19.6084C20.942 17.3231 16.2836 17.4131 13.2002 19.8837C13.2002 19.8837 12.9954 20.0435 12.7975 20.1488C11.5619 20.8046 9.82421 20.2407 9.2381 18.9193C8.76449 17.852 9.134 16.5341 10.0896 15.7798C12.5687 13.8244 15.8108 12.7414 18.9064 12.7494Z" fill="url(#paint1_linear)"/>
<path d="M11.9552 3.58951C16.397 3.61163 20.8052 5.41609 23.854 8.61509C26.0562 10.9256 27.5541 13.8863 28.348 16.9709C28.6981 18.3311 27.9438 19.8556 26.5916 20.2374C25.2592 20.6133 23.7438 19.7679 23.3842 18.3391C23.3731 18.2964 23.3624 18.2533 23.3514 18.2106C22.4335 14.6989 20.2481 11.4484 16.9747 9.86167C12.9345 7.90315 7.91274 8.75237 3.80273 10.9889L3.6666 11.0579C2.15766 11.7127 0.207527 10.7143 0.0149538 9.01816C-0.105166 7.96034 0.50878 6.91511 1.48232 6.39116C1.57804 6.3393 1.67413 6.28858 1.77023 6.23825C4.86703 4.62025 8.28873 3.61582 11.8039 3.58989C11.8542 3.58951 11.9049 3.58951 11.9552 3.58951Z" fill="url(#paint2_linear)"/>
<path d="M18.7927 0C24.8387 0.0255493 30.8542 2.15148 35.5744 6.00333C35.8146 6.19933 36.0628 6.38771 36.2691 6.61956C37.0635 7.51302 37.1184 8.97353 36.3637 9.92724C35.5004 11.0179 33.7592 11.2074 32.6316 10.2514C32.5874 10.2136 32.5428 10.1766 32.4985 10.1393C27.7879 6.22145 21.4734 4.46884 15.4224 5.39815C11.341 6.02468 7.45334 7.8772 4.36874 10.6262L4.23032 10.741C3.48634 11.2756 2.5025 11.4236 1.67958 11.0861C0.465037 10.5881 -0.222125 9.06619 0.241957 7.81199C0.460079 7.22207 0.932932 6.78125 1.4443 6.34653C6.19113 2.3124 12.3558 0.0278373 18.6356 0C18.6878 0 18.7404 0 18.7927 0Z" fill="url(#paint3_linear)"/>
<path d="M54.8624 12.3687H51.5528V21.4322H48.4266V12.3687H45.1338V9.95749H54.8624V12.3687Z" fill="#434356"/>
<path d="M61.4478 18.7049H57.922L57.2401 21.4322H54.0472L57.1902 10.7724C57.2459 10.5283 57.3706 10.3316 57.5647 10.1817C57.7584 10.0322 57.983 9.95749 58.2381 9.95749H61.1316C61.3868 9.95749 61.6114 10.0322 61.8051 10.1817C61.9992 10.3316 62.1296 10.5283 62.1959 10.7724L65.3225 21.4322H62.1296L61.4478 18.7049ZM60.8655 16.4432L60.1337 13.4997C60.0121 12.9231 59.94 12.5239 59.9179 12.3023H59.4687C59.3912 12.7237 59.3135 13.1226 59.236 13.4997L58.5043 16.4432H60.8655Z" fill="#434356"/>
<path d="M70.6108 17.3396L68.3159 16.4248C67.4179 16.0591 66.7803 15.6129 66.4035 15.0863C66.0264 14.5597 65.838 13.8695 65.838 13.0157C65.838 11.7294 66.1652 10.8619 66.8192 10.4131C67.4732 9.96423 68.6374 9.73962 70.3114 9.73962C71.9191 9.73962 73.2496 9.91122 74.3028 10.2552L74.103 12.3007C72.1407 12.2675 70.8659 12.2507 70.2783 12.2507C69.7459 12.2507 69.3886 12.2949 69.2056 12.3838C69.0225 12.4723 68.931 12.6664 68.931 12.9657C68.931 13.2208 69.0088 13.4176 69.164 13.556C69.3192 13.6948 69.6075 13.8359 70.0289 13.98L72.1407 14.795C73.0608 15.161 73.7095 15.6099 74.0866 16.1422C74.4634 16.6742 74.6518 17.3728 74.6518 18.2376C74.6518 19.5345 74.3276 20.4272 73.679 20.915C73.0303 21.4027 71.8581 21.6467 70.1619 21.6467C68.6984 21.6467 67.2959 21.4805 65.9543 21.148L66.1374 18.9358C68.4101 18.9915 69.7459 19.019 70.1452 19.019C70.6996 19.019 71.068 18.9721 71.251 18.8779C71.4341 18.7837 71.5256 18.5923 71.5256 18.304C71.5256 18.0378 71.4615 17.8441 71.3342 17.7221C71.2068 17.6 70.9654 17.4727 70.6108 17.3396Z" fill="#434356"/>
<path d="M85.7771 9.95749V20.6672C85.7771 21.1771 85.522 21.4322 85.0121 21.4322H83.3655C82.9667 21.4322 82.6784 21.2217 82.501 20.8003L79.2746 13.7659C78.8868 12.9342 78.6595 12.3633 78.5928 12.0529H78.3933C78.4597 12.5185 78.4929 13.0951 78.4929 13.7823V21.4322H76.4474V10.7224C76.4474 10.2122 76.7082 9.95749 77.2291 9.95749H78.8422C79.0641 9.95749 79.2387 10.0074 79.3661 10.107C79.4935 10.2069 79.6071 10.3674 79.707 10.5894L82.8336 17.4244C82.8667 17.5018 82.983 17.7626 83.1829 18.2061C83.3823 18.6492 83.5318 18.9932 83.6317 19.2368H83.8311C83.7758 18.5386 83.748 17.9178 83.748 17.3744V9.95749H85.7771Z" fill="#434356"/>
<path d="M95.6552 19.7491L95.7551 21.329C94.7461 21.4178 93.061 21.462 90.6998 21.462C89.9459 21.462 89.3499 21.2679 88.9117 20.8801C88.4739 20.4919 88.2493 19.96 88.2383 19.2835V12.0992C88.2493 11.4231 88.4739 10.8907 88.9117 10.5029C89.3499 10.1147 89.9459 9.92062 90.6998 9.92062C93.061 9.92062 94.7461 9.96524 95.7551 10.0537L95.6552 11.6503H91.1654C90.866 11.6503 90.6525 11.7224 90.5251 11.8666C90.3974 12.0107 90.3337 12.2601 90.3337 12.6147V14.627H95.0401V16.2237H90.3337V18.7847C90.3337 19.1393 90.3974 19.3887 90.5251 19.5329C90.6525 19.677 90.866 19.7491 91.1654 19.7491H95.6552Z" fill="#434356"/>
<path d="M106 11.7368H102.458V21.4322H100.362V11.7368H96.8533V9.95749H106V11.7368Z" fill="#434356"/>
<defs>
<linearGradient id="paint0_linear" x1="16.8894" y1="28.7514" x2="22.4997" y2="26.24" gradientUnits="userSpaceOnUse">
<stop stop-color="#4ED7FE"/>
<stop offset="1" stop-color="#01A6D5"/>
</linearGradient>
<linearGradient id="paint1_linear" x1="21.6663" y1="11.9576" x2="10.4123" y2="16.5861" gradientUnits="userSpaceOnUse">
<stop stop-color="#009DE4"/>
<stop offset="1" stop-color="#50E7FF"/>
</linearGradient>
<linearGradient id="paint2_linear" x1="25.3888" y1="16.5866" x2="17.2318" y2="8.64342" gradientUnits="userSpaceOnUse">
<stop stop-color="#049FE5"/>
<stop offset="1" stop-color="#05E8A4"/>
</linearGradient>
<linearGradient id="paint3_linear" x1="3.74709" y1="8.10459" x2="26.3391" y2="2.32232" gradientUnits="userSpaceOnUse">
<stop stop-color="#00E6AB"/>
<stop offset="1" stop-color="#5252FF"/>
</linearGradient>
</defs>
</svg>
